<svg version="1.1" id="Layer_1" xmlns="http://www.w3.org/2000/svg" xmlns:xlink="http://www.w3.org/1999/xlink" x="0px" y="0px"
	 width="100%" viewBox="0 0 1024 688" enable-background="new 0 0 1024 688" xml:space="preserve">
<path fill="#000000" opacity="1.000000" stroke="none" 
	d="
M485.363892,454.921753 
	C469.859619,453.352417 454.791992,451.976013 439.763428,450.258026 
	C413.330688,447.236420 386.840027,444.990509 360.294495,443.206604 
	C324.831787,440.823425 289.472382,441.526215 254.105789,444.965424 
	C231.982056,447.116882 210.529327,452.285431 189.118393,457.869904 
	C181.552155,459.843353 173.946121,461.815369 165.997330,461.371429 
	C163.414261,461.227173 160.362747,462.138306 158.772156,459.237488 
	C157.058792,456.112823 159.550110,453.860718 161.086227,451.618591 
	C166.937195,443.078491 173.842239,435.383423 180.716919,427.676910 
	C216.527390,387.533539 252.477631,347.514130 288.154541,307.252533 
	C318.750854,272.724487 349.066742,237.947769 379.465027,203.244568 
	C406.463501,172.422638 433.412140,141.556976 460.353577,110.685135 
	C461.991180,108.808578 463.380554,106.714226 464.868958,104.708931 
	C465.855591,103.379601 467.183685,102.044579 466.372833,100.233780 
	C465.462677,98.201302 463.435089,98.310715 461.607330,98.299812 
	C450.776123,98.235191 439.944672,98.148514 429.113403,98.164085 
	C403.451050,98.200974 377.780762,97.925392 352.129120,98.483696 
	C334.000183,98.878273 315.810303,98.342728 297.744293,100.382324 
	C276.113037,102.824425 255.853638,108.451935 240.874008,125.876640 
	C231.340164,136.966690 225.794586,150.107071 221.048462,163.684341 
	C220.114532,166.356049 219.219818,169.042191 218.354675,171.736984 
	C217.501038,174.395966 215.934814,176.291962 212.939072,175.786285 
	C210.080978,175.303802 208.658005,173.142044 208.756943,170.365601 
	C208.958099,164.722076 209.241989,159.070648 209.796204,153.452515 
	C211.755081,133.595413 213.950836,113.761108 215.807892,93.894905 
	C216.296768,88.665100 218.323425,85.915154 223.799042,86.129852 
	C226.288925,86.227486 228.791672,85.927155 231.289597,85.900368 
	C270.439575,85.480392 309.594147,85.320587 348.738739,84.609184 
	C405.536713,83.576965 462.327942,82.232407 519.132019,81.453041 
	C537.455017,81.201645 555.784424,81.221458 574.106201,80.777115 
	C575.854309,80.734711 577.766418,80.207680 579.365967,81.526237 
	C579.979675,83.385735 578.578857,84.319145 577.620911,85.371780 
	C550.712585,114.940735 523.668640,144.387360 496.904755,174.086304 
	C478.287018,194.745728 459.996429,215.701202 441.656067,236.608978 
	C417.494476,264.152802 393.415100,291.768860 369.323547,319.373993 
	C350.157684,341.335083 331.032349,363.331512 311.875061,385.300049 
	C308.044128,389.693176 304.137085,394.019897 300.294281,398.402802 
	C299.329102,399.503662 297.942169,400.598480 298.678192,402.287354 
	C299.309143,403.735291 300.851562,403.596069 302.181091,403.643433 
	C323.309906,404.395996 344.313660,406.757721 365.337219,408.764404 
	C391.465088,411.258270 417.595734,413.760406 443.717102,416.311066 
	C465.894287,418.476624 488.254700,420.034515 510.562347,418.586914 
	C533.427002,417.103180 554.506165,410.543152 570.343018,392.639252 
	C582.422729,378.982819 587.896851,362.250854 591.717163,344.835846 
	C592.072021,343.218292 592.286072,341.509796 592.982117,340.041016 
	C594.044800,337.798676 596.162415,337.141022 598.479126,337.635498 
	C600.612976,338.090942 601.219482,339.807922 601.329224,341.800079 
	C602.566772,364.253937 604.110474,386.786316 600.116333,409.061310 
	C595.189758,436.536041 579.971252,451.739807 550.063049,456.150543 
	C532.156189,458.791412 514.196960,456.963318 496.275848,455.669525 
	C492.791046,455.417938 489.304077,455.196320 485.363892,454.921753 
z"/>
<path fill="#000000" opacity="1.000000" stroke="none" 
	d="
M526.018311,157.025970 
	C529.726257,152.941727 533.228516,149.148743 536.660583,145.293320 
	C538.091187,143.686249 539.815613,142.959915 541.927734,142.869995 
	C563.890930,141.934830 585.858826,141.260101 607.846252,141.617813 
	C610.399414,141.659348 613.261536,141.646179 613.412476,145.119614 
	C613.569580,148.733765 610.891785,149.856384 607.841492,150.245682 
	C598.787292,151.401199 589.593506,151.415939 580.827881,154.665878 
	C565.744202,160.258240 561.061035,171.100296 568.385986,185.504837 
	C576.062439,200.600464 587.181702,213.359894 597.448792,226.670334 
	C615.358032,249.888138 635.124634,271.631287 652.495178,295.264648 
	C675.821594,327.001251 685.149536,362.680542 680.550537,401.783051 
	C676.101501,439.610016 660.408569,472.910065 638.455017,503.561737 
	C615.417908,535.726318 586.360657,560.971741 550.940308,578.582458 
	C519.348450,594.289551 485.738556,601.846375 450.445892,600.099426 
	C428.583466,599.017212 407.486694,594.006775 389.197510,581.146362 
	C371.676575,568.826172 359.213989,552.877563 356.060577,530.940613 
	C353.780396,515.078491 355.151794,499.733032 362.668243,485.290497 
	C363.434631,483.817932 364.288635,482.369507 365.274597,481.037659 
	C366.858459,478.898102 368.849884,477.465820 371.701019,478.506897 
	C374.385010,479.486938 374.151550,481.871155 374.014374,483.992432 
	C373.144135,497.448242 375.108643,510.222015 382.691956,521.731506 
	C394.204041,539.203674 411.478485,547.932190 431.142883,551.453064 
	C474.216217,559.165344 512.935547,547.716370 547.932434,522.355042 
	C576.746399,501.474213 598.582581,474.787567 613.144043,442.312592 
	C622.368042,421.741119 626.470337,399.970520 624.427429,377.570068 
	C622.491516,356.342712 613.268127,337.627014 600.714417,320.598877 
	C577.664673,289.333649 552.447449,259.800110 527.794678,229.819077 
	C517.957458,217.855667 508.327728,205.701080 497.676575,194.436447 
	C495.071594,191.681412 495.562469,189.874268 497.935364,187.359940 
	C507.311371,177.425110 516.516052,167.328583 526.018311,157.025970 
z"/>
<path fill="#000000" opacity="1.000000" stroke="none" 
	d="
M828.000183,136.935120 
	C838.332275,136.883224 848.164429,136.817673 857.996582,136.801193 
	C859.654114,136.798416 861.340210,136.856003 862.962524,137.157547 
	C864.903503,137.518341 866.379395,138.685028 866.551880,140.786987 
	C866.743408,143.120819 865.380859,144.716370 863.251526,145.161728 
	C860.006348,145.840454 856.682068,146.155670 853.383728,146.563126 
	C833.909058,148.968811 818.474243,158.966415 805.059021,172.548813 
	C791.489868,186.287033 781.372131,202.623367 771.251587,218.879776 
	C749.317200,254.112549 729.046021,290.277649 711.739929,328.035950 
	C706.886597,338.624817 702.480286,349.416809 699.143494,360.618347 
	C698.529968,362.678009 698.537170,366.199402 695.687622,365.989624 
	C692.609619,365.762970 693.112366,362.293213 692.692444,359.935089 
	C687.293701,329.613831 695.074402,302.093506 709.472046,275.539581 
	C722.799683,250.959259 736.890991,226.732834 748.066040,201.042847 
	C752.091980,191.787659 756.454651,182.535461 756.754150,172.064804 
	C757.027039,162.522980 752.404785,156.320312 744.105774,152.412506 
	C737.535034,149.318497 730.452637,148.290619 723.344116,147.404236 
	C722.520081,147.301514 721.671753,147.388168 720.849854,147.275803 
	C718.063721,146.894958 715.903137,145.442062 716.036438,142.522156 
	C716.163147,139.745407 718.500183,138.813400 721.060791,138.708771 
	C727.051697,138.463989 733.041809,138.103226 739.035034,138.032745 
	C753.032227,137.868179 767.031982,137.920181 781.028992,137.747910 
	C796.520386,137.557266 812.009888,137.214493 828.000183,136.935120 
z"/>
</svg>